<?xml version="1.0" encoding="UTF-8" standalone="no"?>
<!-- Created with Inkscape (http://www.inkscape.org/) -->

<svg
   xmlns:dc="http://purl.org/dc/elements/1.1/"
   xmlns:cc="http://creativecommons.org/ns#"
   xmlns:rdf="http://www.w3.org/1999/02/22-rdf-syntax-ns#"
   xmlns:svg="http://www.w3.org/2000/svg"
   xmlns="http://www.w3.org/2000/svg"
   xmlns:sodipodi="http://sodipodi.sourceforge.net/DTD/sodipodi-0.dtd"
   xmlns:inkscape="http://www.inkscape.org/namespaces/inkscape"
   width="44.057587mm"
   height="57.503494mm"
   viewBox="0 0 156.10956 203.75254"
   id="svg2"
   version="1.1"
   inkscape:version="0.91 r13725">
  <defs
     id="defs4" />
  <sodipodi:namedview
     id="base"
     pagecolor="#ffffff"
     bordercolor="#666666"
     borderopacity="1.0"
     inkscape:pageopacity="0.0"
     inkscape:pageshadow="2"
     inkscape:zoom="2.4046525"
     inkscape:cx="61.373242"
     inkscape:cy="140.45777"
     inkscape:document-units="px"
     inkscape:current-layer="layer1"
     showgrid="false"
     fit-margin-top="0"
     fit-margin-left="0"
     fit-margin-right="0"
     fit-margin-bottom="0"
     inkscape:window-width="1920"
     inkscape:window-height="1151"
     inkscape:window-x="0"
     inkscape:window-y="0"
     inkscape:window-maximized="1" />
  <metadata
     id="metadata7">
    <rdf:RDF>
      <cc:Work
         rdf:about="">
        <dc:format>image/svg+xml</dc:format>
        <dc:type
           rdf:resource="http://purl.org/dc/dcmitype/StillImage" />
        <dc:title></dc:title>
      </cc:Work>
    </rdf:RDF>
  </metadata>
  <g
     inkscape:label="Layer 1"
     inkscape:groupmode="layer"
     id="layer1"
     transform="translate(-127.55845,-98.798385)">
    <path
       style="fill:#000000"
       d="m 131.34265,302.19968 c -2.906,-0.95367 -4.39931,-3.81538 -3.54513,-6.79372 0.19207,-0.66971 0.28722,-1.31976 0.21145,-1.44456 -0.13845,-0.22804 0.66423,-7.8941 1.11861,-10.68335 0.13384,-0.82157 0.45033,-1.9139 0.70331,-2.42738 2.22154,-4.50909 2.31064,-7.48225 0.29353,-9.79447 -0.4711,-0.54002 -0.49538,-0.99622 -0.14906,-2.80083 0.22754,-1.18566 0.43746,-4.25636 0.4665,-6.82379 0.16179,-14.30475 7.34335,-23.1436 14.30144,-17.60178 1.11304,0.88649 2.14519,0.84891 3.42149,-0.12458 1.21601,-0.92749 18.60784,-1.67768 19.44669,-0.83883 0.10607,0.10607 1.04243,-0.10633 2.0808,-0.47201 1.25246,-0.44107 3.14361,-0.6865 5.6184,-0.72914 2.46083,-0.0424 4.00208,-0.24134 4.52852,-0.58454 0.60277,-0.39297 2.35153,-0.52044 7.1466,-0.52094 6.93349,-7.5e-4 12.76634,-0.42219 17.82564,-1.28803 4.91003,-0.8403 5.56358,-1.14125 7.21544,-3.32255 0.81039,-1.07015 1.73209,-2.20887 2.04821,-2.5305 0.91412,-0.93003 2.22606,-3.66965 2.22606,-4.6485 0,-3.59057 4.46429,-12.25066 6.73551,-13.06593 0.31553,-0.11326 1.20104,-1.04625 1.96782,-2.07332 0.76678,-1.02707 1.64712,-1.8674 1.95631,-1.8674 0.64086,0 1.07934,-0.97911 1.46334,-3.26763 0.18852,-1.12346 0.13716,-1.58714 -0.17579,-1.58714 -0.91769,0 -6.13902,2.7256 -6.77835,3.53839 -1.61387,2.0517 -4.42978,2.38821 -6.0124,0.7185 -1.37325,-1.44881 -3.63776,-0.75956 -3.63776,1.10723 0,0.3505 -0.23429,1.00946 -0.52063,1.46437 -0.28635,0.45491 -0.71182,2.71786 -0.94549,5.02877 -0.43865,4.33801 -0.64952,5.32116 -1.14127,5.32116 -0.15774,0 -0.38465,0.48922 -0.50424,1.08716 -0.6831,3.41553 -10.31972,-1.4739 -11.26829,-5.71732 -0.21819,-0.97606 -0.0687,-4.4529 0.20232,-4.70594 0.53796,-0.50223 1.00535,-4.32829 0.61586,-5.04149 -0.22434,-0.41079 -0.42462,-0.91494 -0.44507,-1.12033 -0.0205,-0.2054 -0.16108,-0.79357 -0.31249,-1.30706 -0.39862,-1.35188 1.20905,-6.08362 2.96599,-8.72954 2.08255,-3.13628 2.37896,-3.69416 2.38515,-4.48906 0.009,-1.10603 2.38444,-4.4153 4.39643,-6.12372 1.00367,-0.85223 2.32918,-2.01638 2.94558,-2.587 2.55376,-2.36405 3.96773,-3.46487 4.45052,-3.46487 0.28145,0 1.0999,-0.58817 1.81878,-1.30705 0.71888,-0.71888 1.50047,-1.30705 1.73688,-1.30705 0.2364,0 1.12223,-0.69241 1.9685,-1.53868 0.84626,-0.84626 1.79278,-1.64998 2.10336,-1.78602 1.97154,-0.86361 2.9529,-1.79458 3.37028,-3.19723 0.24665,-0.82892 0.76661,-2.16887 1.15546,-2.97768 0.38886,-0.80881 0.70701,-1.60589 0.70701,-1.77129 0,-1.47413 5.08496,-10.44678 6.9939,-12.34106 1.18552,-1.17641 2.82768,-2.93789 3.64926,-3.91439 2.80987,-3.33977 7.82182,-7.78602 10.17634,-9.02775 0.46214,-0.24373 0.84025,-0.67528 0.84025,-0.95902 0,-0.28373 0.44833,-0.84246 0.99628,-1.24161 0.99628,-0.72574 0.99628,-0.72574 0.28008,-1.80661 -0.3939,-0.59448 -0.88424,-1.35127 -1.08964,-1.68175 -0.20539,-0.33049 -1.09463,-1.67416 -1.97609,-2.98595 -2.55886,-3.80811 -3.54029,-6.10551 -3.70444,-8.67158 -0.081,-1.26649 -0.20784,-3.22698 -0.28184,-4.35664 -0.21782,-3.32527 0.72579,-7.03726 2.92791,-11.51787 0.53929,-1.09728 0.98052,-2.15679 0.98052,-2.35448 0,-1.99278 5.21371,-7.682695 6.56469,-7.164278 0.29714,0.114028 0.74818,0.03602 1.00231,-0.173359 0.70529,-0.581082 7.44911,-1.288826 8.51577,-0.893704 0.49991,0.185183 1.09821,0.269726 1.32954,0.187873 0.94608,-0.334753 4.5426,1.718298 6.40495,3.656228 2.74433,2.85571 6.56724,7.77434 7.14366,9.19119 0.2688,0.66072 0.73065,1.40208 1.02632,1.64747 0.29568,0.24539 0.96298,1.3853 1.48288,2.53313 0.51991,1.14783 1.33636,2.92721 1.81433,3.95419 1.07407,2.30774 1.31085,4.19481 0.89031,7.09543 -0.17867,1.23237 -0.42639,3.15021 -0.55048,4.26189 -0.57698,5.16871 -2.80871,7.72279 -7.3421,8.40262 -1.8582,0.27865 -1.92557,0.37868 -1.77106,2.62977 0.16238,2.36581 1.26198,4.92063 3.65055,8.48176 4.58455,6.83513 5.73404,14.12716 3.99321,25.33184 -0.11169,0.71888 -0.27504,2.23133 -0.363,3.361 -0.088,1.12967 -0.40321,3.23029 -0.70056,4.66805 -0.29735,1.43776 -0.80534,3.92546 -1.12886,5.52823 -0.32352,1.60277 -0.77994,3.27236 -1.01427,3.7102 -0.51799,0.96787 -2.193,6.18146 -2.193,6.82586 0,0.25438 -0.26,0.67829 -0.57777,0.94202 -0.31777,0.26373 -1.00392,1.38031 -1.52476,2.48129 -0.52085,1.10097 -1.35654,2.48849 -1.8571,3.08337 -0.50055,0.59488 -1.25548,1.80956 -1.67762,2.6993 -0.42213,0.88973 -1.00446,2.03782 -1.29407,2.55131 -0.2896,0.51348 -0.52903,1.21934 -0.53206,1.56858 -0.003,0.34923 -0.2196,0.76935 -0.48127,0.93361 -0.48808,0.30636 -1.6243,1.94038 -1.70471,2.45157 -0.0247,0.15714 -0.72297,1.20352 -1.55166,2.32528 -0.8287,1.12177 -1.92849,2.66109 -2.444,3.42073 -0.5155,0.75964 -1.96788,2.48608 -3.22751,3.83654 -1.25963,1.35046 -4.20408,5.34 -6.54322,8.86563 -2.33915,3.52564 -4.49744,6.61312 -4.79622,6.86108 -0.29877,0.24796 -0.54322,0.66833 -0.54322,0.93415 0,0.26583 -0.13582,0.53934 -0.30182,0.60781 -0.166,0.0685 -0.84627,0.92271 -1.51171,1.89834 -0.66545,0.97562 -1.36071,1.77385 -1.54502,1.77385 -0.18432,0 -0.55436,0.39671 -0.82231,0.88158 -1.71928,3.11109 -4.07914,5.82787 -8.01915,9.23206 -0.37609,0.32494 -1.12279,1.08117 -1.65933,1.68049 -0.53654,0.59933 -2.11594,2.09799 -3.50978,3.33036 -1.39384,1.23236 -3.05091,2.7028 -3.68238,3.26763 -0.63148,0.56483 -1.25708,1.02697 -1.39022,1.02697 -0.13315,0 -0.64059,0.58158 -1.12766,1.29241 -0.48706,0.71082 -1.27817,1.50252 -1.75801,1.75932 -0.47984,0.25681 -1.06928,0.83602 -1.30987,1.28714 -0.47229,0.88558 -6.57652,7.6057 -8.07073,8.88503 -0.50122,0.42914 -1.59355,1.392 -2.42739,2.1397 -2.02194,1.81305 -4.10454,2.83369 -6.37084,3.12222 -2.09349,0.26653 -4.73368,0.74403 -8.5559,1.5474 -1.41944,0.29835 -3.43604,0.51308 -4.48133,0.47718 -1.04529,-0.0359 -2.40468,0.11347 -3.02086,0.33194 -0.61618,0.21848 -2.29668,0.59081 -3.73444,0.82741 -1.43776,0.23661 -3.87448,0.77232 -5.41494,1.19048 -3.62413,0.98379 -7.24356,1.42611 -8.56597,1.04685 -1.29141,-0.37037 -6.9153,0.087 -11.41328,0.92812 -1.84855,0.3457 -4.11722,0.69766 -5.04149,0.78215 -0.92428,0.0845 -2.3527,0.24968 -3.17428,0.36709 -2.01433,0.28786 -3.41176,-0.31713 -4.33093,-1.875 -1.86291,-3.15741 -5.93878,-1.00286 -5.93878,3.13931 0,5.77366 -4.08334,9.45767 -8.77593,7.91769 z m 4.35369,-3.14392 c 1.09317,-1.0013 1.37405,-1.5738 1.60318,-3.26763 0.69632,-5.14758 1.11015,-6.15014 3.09017,-7.48644 0.90262,-0.60917 2.13172,-1.10247 2.74689,-1.10247 1.66499,0 1.68997,-0.26922 0.57175,-6.16183 -0.0779,-0.41079 -0.25823,-1.76613 -0.40062,-3.01188 -0.39257,-3.43461 -0.97524,-3.89373 -4.66095,-3.67267 -3.25835,0.19544 -3.67746,0.37588 -4.08292,1.75789 -0.19238,0.65572 -1.05177,2.78717 -1.90977,4.73655 -1.43989,3.27148 -1.57193,3.84644 -1.7151,7.46888 -0.1907,4.82491 -0.41382,7.7457 -0.68329,8.94495 -0.58272,2.59339 3.20471,3.84271 5.44066,1.79465 z m 17.86623,-8.86057 c 1.33506,-0.24126 3.60373,-0.69979 5.04149,-1.01898 3.66573,-0.81379 10.4743,-1.27791 11.70857,-0.79813 1.00848,0.39201 5.23053,-0.10877 7.07456,-0.83912 0.4718,-0.18686 1.28109,-0.33974 1.79841,-0.33974 0.51732,0 1.27681,-0.17995 1.68776,-0.39988 0.41094,-0.21993 1.53423,-0.54144 2.4962,-0.71446 3.87825,-0.69757 6.33081,-1.0802 8.28429,-1.29247 1.12967,-0.12275 2.55809,-0.37811 3.17427,-0.56747 0.61619,-0.18936 2.69439,-0.52771 4.61824,-0.75188 1.92385,-0.22417 3.97411,-0.65384 4.55614,-0.95482 0.58204,-0.30098 1.38211,-0.54724 1.77795,-0.54724 0.39584,0 0.92891,-0.25207 1.1846,-0.56017 0.2557,-0.30809 0.69563,-0.56016 0.97764,-0.56016 0.282,0 1.92674,-1.38641 3.65497,-3.08091 1.72824,-1.69451 3.33124,-3.24897 3.56224,-3.45436 0.231,-0.2054 1.15232,-1.33659 2.04738,-2.51378 0.89506,-1.17718 2.32397,-2.87123 3.17535,-3.76455 0.85139,-0.89332 1.80333,-1.98878 2.11542,-2.43435 0.3121,-0.44558 0.75775,-0.81014 0.99035,-0.81014 0.39572,0 1.68704,-1.13655 4.10924,-3.61671 0.56472,-0.57824 1.59951,-1.63952 2.29953,-2.3584 0.70001,-0.71888 2.39971,-2.31535 3.77709,-3.54771 3.02865,-2.70977 4.28664,-4.00082 4.28664,-4.39927 0,-0.40396 1.39322,-2.26882 2.99129,-4.00392 0.72093,-0.78275 2.06532,-2.62085 2.98755,-4.08468 0.92222,-1.46382 2.34896,-3.55917 3.17054,-4.65634 1.68147,-2.2455 1.65998,-2.21423 4.51734,-6.56949 1.14541,-1.74585 2.61418,-3.69986 3.26394,-4.34224 2.21494,-2.1898 3.80127,-4.25036 8.13343,-10.56495 3.66954,-5.34874 3.87961,-5.70321 4.44456,-7.49945 0.29071,-0.92427 1.31238,-2.78734 2.27038,-4.14015 0.958,-1.35281 1.86521,-2.86526 2.01602,-3.36099 0.15081,-0.49574 0.56999,-1.23744 0.9315,-1.64823 0.89691,-1.01916 1.49706,-2.24215 1.49982,-3.05637 10e-4,-0.37294 0.22588,-1.10649 0.49914,-1.63011 0.27327,-0.52362 0.59637,-1.56534 0.71801,-2.31494 0.12165,-0.7496 0.49867,-1.9477 0.83784,-2.66243 0.33916,-0.71473 0.67802,-1.94168 0.75302,-2.72655 0.075,-0.78487 0.40871,-2.43533 0.74157,-3.66769 0.63974,-2.36851 0.70667,-2.79381 1.32222,-8.40249 0.69218,-6.30695 0.6997,-6.7513 0.19584,-11.5677 -0.3165,-3.02549 -0.71744,-5.08673 -1.10425,-5.67708 -0.33402,-0.50978 -0.51331,-1.02088 -0.39842,-1.13577 0.26828,-0.26828 -2.39776,-5.51987 -2.80224,-5.51987 -0.16749,0 -0.39445,-0.37811 -0.50437,-0.84025 -0.35727,-1.50211 -1.24519,-3.65465 -1.69174,-4.1012 -0.23988,-0.23988 -0.43867,-0.69662 -0.44176,-1.01498 -0.006,-0.64623 -0.77899,-2.9514 -1.21925,-3.63729 -0.21687,-0.33786 -0.6004,-0.31265 -1.60056,0.10524 -0.72343,0.30227 -1.49835,0.43647 -1.72205,0.29822 -0.38722,-0.23931 -6.30775,-0.81868 -10.81517,-1.05834 -1.15797,-0.0616 -2.28547,-0.22324 -2.50556,-0.35926 -0.45636,-0.28204 -1.89147,0.43836 -2.53346,1.27176 -0.23732,0.30809 -1.33169,1.52977 -2.43193,2.71485 -4.26661,4.59561 -5.81442,6.57871 -7.2082,9.23536 -0.59267,1.12967 -1.38589,2.45472 -1.7627,2.94455 -0.37682,0.48984 -0.68513,1.0879 -0.68513,1.32903 0,0.24112 -0.58817,1.41517 -1.30705,2.60898 -0.71888,1.19382 -1.30705,2.36162 -1.30705,2.59512 0,0.23349 -0.42013,1.21373 -0.93361,2.17831 -0.51349,0.96458 -0.93361,2.09758 -0.93361,2.51777 0,0.4202 -0.16044,0.764 -0.35653,0.764 -0.19608,0 -0.47062,0.63019 -0.61007,1.40041 -0.13946,0.77023 -0.4633,1.82054 -0.71965,2.33403 -0.25636,0.51348 -0.58637,1.65732 -0.73337,2.54185 -0.35293,2.12364 -2.11659,3.80273 -6.7641,6.43976 -1.97255,1.11925 -3.75938,2.35786 -3.97074,2.75249 -0.21135,0.39462 -0.90533,1.15085 -1.54216,1.6805 -0.63683,0.52964 -2.16997,2.04031 -3.40698,3.35704 -1.237,1.31673 -3.38344,3.55153 -4.76985,4.96623 -1.38641,1.4147 -2.52074,2.76087 -2.52074,2.99149 0,0.23061 -0.26547,0.71264 -0.58993,1.07116 -0.90377,0.99865 2.85365,5.19533 4.65154,5.19533 0.24469,0 0.79193,0.58817 1.21608,1.30705 0.42415,0.71888 0.92263,1.30706 1.10774,1.30706 0.18511,0 0.33656,0.47203 0.33656,1.04895 0,2.54687 2.44167,2.83743 3.80274,0.45252 0.34565,-0.60567 1.05986,-1.20949 1.58713,-1.34183 0.52727,-0.13234 0.95867,-0.40842 0.95867,-0.61353 0,-0.2051 0.23979,-0.28089 0.53287,-0.16843 0.29307,0.11246 0.72481,-0.0268 0.95941,-0.30949 0.2346,-0.28268 0.89638,-0.61715 1.47061,-0.74328 0.57424,-0.12612 1.39585,-0.55704 1.82581,-0.95761 0.42995,-0.40056 0.87988,-0.7283 0.99983,-0.7283 0.59633,0 5.996,-5.26084 7.28269,-7.09543 0.50418,-0.71888 1.25644,-1.67708 1.6717,-2.12933 1.27238,-1.38572 1.68815,-1.93441 1.69957,-2.24288 0.0397,-1.07323 4.75655,-4.65894 6.78869,-5.16072 1.67441,-0.41345 13.73978,-14.24554 13.73978,-15.75169 0,-0.10385 0.47658,-0.80118 1.05908,-1.54961 0.58249,-0.74844 1.45368,-2.07501 1.93598,-2.94793 0.4823,-0.87293 0.9958,-1.58714 1.1411,-1.58714 0.14531,0 0.37761,-0.45189 0.51623,-1.00419 0.13862,-0.55231 0.56579,-1.44482 0.94927,-1.98336 0.38347,-0.53854 0.80646,-1.47307 0.93997,-2.07672 0.1335,-0.60366 0.46197,-1.6017 0.72993,-2.21789 0.89363,-2.05498 1.27502,-3.72483 1.0753,-4.70808 -0.15165,-0.74657 0.0333,-1.1554 0.79301,-1.75299 1.37298,-1.07999 2.05398,-0.6989 2.10767,1.17945 0.0551,1.92755 0.13064,1.55711 -0.81052,3.97457 -0.4398,1.12967 -0.92575,2.66696 -1.07988,3.41619 -0.15413,0.74924 -0.64205,1.82222 -1.08425,2.38439 -0.44221,0.56218 -0.80401,1.1756 -0.80401,1.36316 0,0.47066 -2.6347,4.57066 -3.03583,4.72422 -0.17885,0.0685 -0.32517,0.30971 -0.32517,0.5361 0,0.22639 -0.31971,0.75855 -0.71047,1.18258 -0.39076,0.42402 -1.07191,1.42219 -1.51367,2.21815 -0.44176,0.79595 -1.76053,2.71092 -2.93061,4.25549 -1.17007,1.54457 -2.37777,3.16201 -2.68377,3.59431 -0.30599,0.43229 -1.51503,1.79429 -2.68675,3.02665 -2.30075,2.41985 -3.56031,3.84662 -3.73935,4.23578 -0.20366,0.44267 -4.18376,2.95577 -5.90135,3.7262 -1.28774,0.57762 -2.04614,1.30633 -3.24495,3.1179 -0.86046,1.30026 -2.25101,3.12033 -3.09013,4.04461 -0.83912,0.92427 -2.40226,2.64477 -3.47366,3.82334 -1.91756,2.10939 -2.80403,3.78348 -2.85995,5.40101 -0.13535,3.91543 -0.69857,4.72982 -8.04005,11.62549 -0.72845,0.68422 -1.32446,1.56648 -1.32446,1.96058 0,0.3941 -0.16579,0.71655 -0.36843,0.71655 -0.49127,0 -1.34976,2.11159 -1.68556,4.14591 -0.14911,0.90336 -0.40135,1.81052 -0.56052,2.01591 -0.15918,0.2054 -0.41277,1.29027 -0.56355,2.41084 -0.22803,1.69464 -1.12456,3.64284 -2.06987,4.49788 -0.11354,0.10269 -0.60903,0.85892 -1.10109,1.68049 -0.88005,1.46938 -3.95914,5.7991 -4.92252,6.92191 -0.92132,1.07379 -5.90688,11.6398 -5.90688,12.51859 0,0.31077 -0.25363,0.95212 -0.56362,1.42523 -0.30999,0.4731 -0.50507,1.39503 -0.43351,2.04871 0.16228,1.48231 -1.01017,5.05683 -1.70595,5.20105 -1.04944,0.21752 -1.94736,-1.3062 -1.43387,-2.43318 1.45299,-3.18898 0.72604,-5.29851 -0.92475,-2.68349 -1.52592,2.41722 -3.22789,2.97796 -8.32829,2.74388 -2.44178,-0.11206 -5.1445,-0.0132 -6.50393,0.23797 -1.2793,0.23635 -3.25027,0.4816 -4.37994,0.545 -3.33045,0.18693 -8.71686,0.88973 -9.52282,1.2425 -0.41079,0.17981 -2.09129,0.60682 -3.73444,0.94892 -1.64315,0.3421 -4.07988,0.87255 -5.41494,1.17878 -1.33506,0.30622 -3.60373,0.73849 -5.04149,0.96059 -4.75753,0.73492 -8.97258,2.71247 -9.82554,4.60982 -1.39103,3.09419 -1.5455,7.44576 -0.42459,11.96111 0.35691,1.43776 0.56672,2.7497 0.46624,2.91542 -0.73438,1.21119 1.77293,4.52424 3.21655,4.25021 0.53113,-0.10082 2.058,-0.3807 3.39307,-0.62194 z m -14.31615,-20.76895 c 0.23919,-1.00806 0.54736,-3.13253 0.68483,-4.72104 0.24987,-2.88742 1.18588,-4.66712 2.72308,-5.17757 0.27025,-0.0897 0.53675,-0.89566 0.60694,-1.83549 0.32134,-4.30257 0.71697,-6.96652 1.13621,-7.6506 0.91333,-1.49031 0.98134,-2.65609 0.19639,-3.36646 -0.40747,-0.36875 -0.74085,-0.53981 -0.74085,-0.38013 0,0.15968 -0.21006,0.12211 -0.4668,-0.0835 -4.74,-3.79575 -9.5804,1.9334 -10.17722,12.04585 -0.29127,4.93525 -0.5644,8.28544 -0.78468,9.62456 -0.75566,4.5939 5.74911,6.06644 6.8221,1.54437 z m 5.51486,0.5526 c 1.1282,-1.05004 2.3514,-2.12862 2.71823,-2.39685 0.85962,-0.62858 0.52345,-0.93802 -1.13426,-1.04407 -0.73144,-0.0468 -1.45137,-0.20656 -1.59985,-0.35504 -1.01601,-1.01601 -2.23202,-0.2399 -2.64886,1.69061 -0.23284,1.07832 -0.54064,2.42272 -0.68402,2.98755 -0.42566,1.67694 1.00371,1.30039 3.34876,-0.8822 z m 12.72245,-5.93358 c 1.02697,-0.22402 2.62344,-0.55595 3.54771,-0.73762 0.92428,-0.18167 2.85685,-0.59926 4.29461,-0.92798 1.43776,-0.32873 2.86618,-0.61085 3.17427,-0.62696 0.3081,-0.0161 1.28211,-0.26362 2.16448,-0.55004 0.88237,-0.28642 2.73092,-0.60261 4.10789,-0.70265 1.37696,-0.10003 4.01602,-0.37324 5.86456,-0.60713 3.05144,-0.38609 7.71124,-0.62477 13.28492,-0.68046 1.6199,-0.0162 2.24112,-0.19469 2.80083,-0.80482 2.20399,-2.4025 3.29045,-3.34643 4.07969,-3.54452 0.51037,-0.1281 1.13223,-0.75025 1.47781,-1.47851 0.32816,-0.69155 0.76021,-1.35844 0.96011,-1.48199 0.19989,-0.12354 0.36345,-0.51179 0.36345,-0.86278 0,-0.35099 0.42212,-1.25936 0.93804,-2.01861 0.51592,-0.75925 0.90577,-1.51247 0.86632,-1.67383 -0.11583,-0.47385 1.27732,-3.18688 2.26006,-4.40126 1.1028,-1.36274 0.0617,-1.6519 -3.38458,-0.94002 -3.94936,0.8158 -9.21391,1.23642 -15.99105,1.27764 -4.74515,0.0289 -7.16416,0.18723 -7.72441,0.50573 -0.49972,0.28408 -2.26328,0.46371 -4.55265,0.46371 -2.16591,0 -3.83709,0.16203 -3.97515,0.38542 -0.15192,0.24581 -2.78862,0.36745 -7.27892,0.33578 -3.87239,-0.0273 -7.25159,0.0807 -7.50934,0.23999 -0.25775,0.1593 -1.90761,0.25589 -3.66636,0.21464 -4.51692,-0.10592 -6.34585,1.65263 -6.93795,6.67098 -0.133,1.1272 -0.67224,3.84886 -1.19831,6.04815 -1.12393,4.69865 -0.82372,5.88698 1.49278,5.90906 2.41583,0.023 6.38119,0.37208 6.58912,0.58001 0.11736,0.11736 0.63446,0.12383 1.14911,0.0144 0.51466,-0.10945 1.77599,-0.38229 2.80296,-0.60631 z m 49.61884,-41.57841 c 0.28654,-0.68579 0.63419,-2.66037 0.77256,-4.38797 0.13836,-1.72759 0.39319,-3.47717 0.56628,-3.88796 0.17309,-0.41079 0.58392,-1.36046 0.91295,-2.11038 0.32904,-0.74992 0.59825,-1.4802 0.59825,-1.62285 0,-0.61854 1.65783,-2.50946 2.47128,-2.81873 1.45708,-0.55398 0.72388,-1.4764 -3.52808,-4.43856 -2.859,-1.99174 -8.24045,6.41205 -8.83143,13.79135 -0.31032,3.87498 5.74016,8.58173 7.03819,5.4751 z m -5.76107,-16.22563 c 0.57254,-0.57254 1.31248,-1.566 1.64431,-2.20769 0.33183,-0.64169 1.05198,-1.51961 1.60032,-1.95095 1.91921,-1.50964 2.26835,-3.44486 0.85266,-4.72604 -0.83791,-0.7583 -1.04506,-0.62912 -2.742,1.7099 -1.45591,2.00677 -2.314,4.09996 -2.56429,6.25518 -0.2631,2.26548 -0.19141,2.32001 1.209,0.9196 z m 7.71517,-11.21792 c 0.44531,-0.8932 2.08512,-2.78224 3.3462,-3.85478 0.39821,-0.33867 1.08761,-1.01087 1.532,-1.49378 0.44439,-0.4829 0.98817,-1.04606 1.20839,-1.25146 0.22021,-0.20539 1.37852,-1.38174 2.574,-2.6141 3.35292,-3.45636 6.48869,-6.2041 7.53303,-6.60086 2.13524,-0.81122 4.76929,-2.89377 4.97862,-3.93623 0.11482,-0.57182 0.41282,-1.54383 0.66221,-2.16001 0.24939,-0.61618 0.48543,-1.41197 0.52453,-1.76841 0.0391,-0.35644 0.35142,-0.95785 0.69406,-1.33646 0.34264,-0.37861 0.62298,-1.15279 0.62298,-1.7204 0,-0.56762 0.3361,-1.45931 0.74689,-1.98154 0.41078,-0.52223 0.74688,-1.18121 0.74688,-1.46439 0,-0.28318 0.14754,-0.80667 0.32786,-1.16333 0.18032,-0.35665 0.60873,-1.23663 0.95204,-1.95551 1.01196,-2.11905 2.20652,-4.21873 3.14881,-5.53466 0.48454,-0.67669 0.80268,-1.30864 0.70698,-1.40434 -0.35447,-0.35447 -1.31174,0.28558 -1.80467,1.20663 -0.27964,0.52251 -0.97019,1.33856 -1.53457,1.81346 -0.56438,0.47489 -1.38491,1.55176 -1.82342,2.39304 -0.4385,0.84128 -0.93601,1.61535 -1.10558,1.72015 -0.41892,0.2589 -2.90042,5.52698 -3.20604,6.80623 -0.13515,0.56569 -0.35555,1.19658 -0.48978,1.40198 -0.13423,0.20539 -0.4611,1.04564 -0.72636,1.86722 -0.79668,2.46745 -1.44596,3.70541 -2.35683,4.49364 -1.53978,1.33248 -3.24828,2.41507 -3.81137,2.41507 -0.30242,0 -0.91155,0.50796 -1.35363,1.12879 -0.44207,0.62083 -1.45071,1.45883 -2.24141,1.86222 -0.79071,0.40339 -1.66867,1.06326 -1.95102,1.46637 -0.28236,0.40313 -1.2072,1.12705 -2.05521,1.60873 -0.84801,0.48168 -2.45276,1.70856 -3.56612,2.72641 -1.11335,1.01785 -2.72246,2.47754 -3.5758,3.24375 -2.37284,2.13055 -2.70319,3.144 -1.39236,4.27152 1.24188,1.06822 2.09311,1.00967 2.68869,-0.18495 z m 61.58058,-56.43872 c 0.82158,-0.38477 2.65175,-0.87085 4.06705,-1.0802 4.32403,-0.6396 5.85262,-2.6845 5.80975,-7.77209 -0.009,-1.06013 0.15984,-2.03633 0.37506,-2.16934 0.87956,-0.5436 0.11593,-6.49912 -0.97321,-7.58996 -0.2655,-0.26592 -0.68187,-1.14818 -0.92528,-1.96058 -0.2434,-0.8124 -0.59324,-1.47709 -0.77743,-1.47709 -0.18418,0 -0.73254,-0.88226 -1.21856,-1.96058 -0.48602,-1.07832 -1.31702,-2.41539 -1.84667,-2.97126 -0.52964,-0.55587 -0.96299,-1.10461 -0.96299,-1.21943 0,-0.38749 -2.71746,-4.30516 -2.98623,-4.30516 -0.14651,0 -1.04635,-0.75806 -1.99964,-1.68458 -2.54953,-2.47791 -5.54093,-3.72699 -7.71123,-3.21987 -0.92427,0.21597 -2.83675,0.50547 -4.24996,0.64334 -4.4047,0.42971 -8.09252,5.15012 -10.6904,13.68373 -1.13723,3.7356 -0.31179,12.04323 1.457,14.66409 0.57517,0.85224 1.15537,1.98623 1.28934,2.51998 0.13396,0.53375 0.70832,1.44557 1.27636,2.02628 0.56803,0.5807 1.31173,1.49284 1.65266,2.02697 1.00753,1.57852 2.72761,2.17072 5.61799,1.93418 1.63572,-0.13386 2.69581,-0.0556 3.03259,0.22392 0.29812,0.24741 1.37002,0.37542 2.52668,0.30174 1.1049,-0.0704 2.42903,-0.002 2.94252,0.15121 1.16577,0.3486 2.37702,0.13275 4.2946,-0.7653 z"
       id="path4235"
       inkscape:connector-curvature="0" />
  </g>
</svg>
