<?xml version="1.0" encoding="UTF-8" standalone="no"?>
<!-- Created with Inkscape (http://www.inkscape.org/) -->

<svg
   xmlns:dc="http://purl.org/dc/elements/1.1/"
   xmlns:cc="http://creativecommons.org/ns#"
   xmlns:rdf="http://www.w3.org/1999/02/22-rdf-syntax-ns#"
   xmlns:svg="http://www.w3.org/2000/svg"
   xmlns="http://www.w3.org/2000/svg"
   xmlns:sodipodi="http://sodipodi.sourceforge.net/DTD/sodipodi-0.dtd"
   xmlns:inkscape="http://www.inkscape.org/namespaces/inkscape"
   width="44.057587mm"
   height="57.503494mm"
   viewBox="0 0 156.10956 203.75254"
   id="svg2"
   version="1.1"
   inkscape:version="0.91 r13725">
  <defs
     id="defs4" />
  <sodipodi:namedview
     id="base"
     pagecolor="#ffffff"
     bordercolor="#666666"
     borderopacity="1.0"
     inkscape:pageopacity="0.0"
     inkscape:pageshadow="2"
     inkscape:zoom="2.4046525"
     inkscape:cx="61.373242"
     inkscape:cy="140.45777"
     inkscape:document-units="px"
     inkscape:current-layer="layer1"
     showgrid="false"
     fit-margin-top="0"
     fit-margin-left="0"
     fit-margin-right="0"
     fit-margin-bottom="0"
     inkscape:window-width="1920"
     inkscape:window-height="1151"
     inkscape:window-x="0"
     inkscape:window-y="0"
     inkscape:window-maximized="1" />
  <metadata
     id="metadata7">
    <rdf:RDF>
      <cc:Work
         rdf:about="">
        <dc:format>image/svg+xml</dc:format>
        <dc:type
           rdf:resource="http://purl.org/dc/dcmitype/StillImage" />
        <dc:title></dc:title>
      </cc:Work>
    </rdf:RDF>
  </metadata>
  <g
     inkscape:label="Layer 1"
     inkscape:groupmode="layer"
     id="layer1"
     transform="translate(-127.55845,-98.798385)">
    <path
       style="fill:#000000"
       d="m 274.67283,290.28597 c -0.86131,-0.79273 -1.9444,-2.14131 -2.40687,-2.99684 -0.46247,-0.85554 -1.00234,-1.85401 -1.19971,-2.21881 -0.63377,-1.17143 -2.2868,-2.9768 -3.12458,-3.41255 -0.4474,-0.2327 -0.96035,-0.62215 -1.13989,-0.86544 -0.17955,-0.2433 -0.91165,-0.53463 -1.6269,-0.64741 -0.71525,-0.11278 -1.64965,-0.47549 -2.07644,-0.80602 -0.42679,-0.33053 -1.04219,-0.60096 -1.36755,-0.60096 -1.19371,0 -2.10194,-0.71867 -2.73716,-2.16587 -0.89366,-2.036 -2.76572,-3.11047 -2.76572,-1.58738 0,2.13578 -6.24212,2.21045 -8.5187,0.10191 -0.65269,-0.60452 -2.17102,-1.49079 -3.84161,-2.24242 -0.80305,-0.3613 -1.72389,-0.94006 -2.0463,-1.28613 -0.32242,-0.34607 -0.86997,-0.62922 -1.21679,-0.62922 -0.34682,0 -0.86073,-0.35125 -1.14202,-0.78055 -0.28129,-0.4293 -0.94355,-0.95953 -1.47171,-1.1783 -0.52815,-0.21877 -0.96027,-0.50493 -0.96027,-0.63593 0,-0.13099 -1.013,-0.91176 -2.25111,-1.73505 -1.2381,-0.82328 -2.48842,-1.83311 -2.77848,-2.24405 -1.26485,-1.792 -3.03481,-4.76225 -3.59668,-6.03576 -0.33528,-0.75993 -0.71008,-1.38169 -0.83289,-1.38169 -0.1228,0 -0.4169,-0.47586 -0.65355,-1.05748 -0.23664,-0.58162 -0.9133,-1.81916 -1.50368,-2.7501 -0.59038,-0.93093 -1.07342,-1.82054 -1.07342,-1.9769 0,-0.94721 -1.48729,-1.64635 -2.92841,-1.37659 -2.72026,0.50921 -8.48181,0.45956 -10.9356,-0.0942 -1.27218,-0.28711 -2.95602,-0.55312 -3.74187,-0.59114 -0.78585,-0.038 -1.57525,-0.17468 -1.75421,-0.3037 -0.17895,-0.12902 -0.81263,-0.33884 -1.40818,-0.46626 -0.59554,-0.12742 -2.03073,-0.88065 -3.18932,-1.67385 -1.15858,-0.7932 -2.72121,-1.68262 -3.47251,-1.97648 -0.7513,-0.29387 -1.84891,-1.02175 -2.43914,-1.61752 -0.59023,-0.59576 -1.25602,-1.08321 -1.47952,-1.08321 -0.2235,0 -0.97828,-0.58568 -1.67727,-1.30152 -0.69899,-0.71583 -1.45566,-1.30152 -1.68148,-1.30152 -0.22583,0 -0.56201,-0.28292 -0.74707,-0.62872 -0.18507,-0.3458 -0.66599,-0.7333 -1.06872,-0.86112 -0.72536,-0.23023 -1.3131,-0.80437 -4.14915,-4.05324 -0.80532,-0.92253 -1.74544,-1.9196 -2.08917,-2.21571 -1.39963,-1.20575 -2.23725,-2.21154 -2.53053,-3.03861 -0.17033,-0.48032 -0.66478,-1.10599 -1.09879,-1.39036 -0.43401,-0.28437 -0.7891,-0.71061 -0.7891,-0.94718 0,-0.23658 -0.29285,-0.69516 -0.65076,-1.01907 -0.35792,-0.32391 -0.65076,-0.74437 -0.65076,-0.93436 0,-0.50379 -4.24017,-6.71206 -4.58426,-6.71206 -0.27275,0 -0.92007,-1.08466 -2.0544,-3.44239 -0.26515,-0.55112 -0.71019,-1.19134 -0.98896,-1.4227 -0.27878,-0.23137 -0.50687,-0.52815 -0.50687,-0.65951 0,-0.13137 -0.6955,-1.46783 -1.54556,-2.96992 -0.85005,-1.5021 -1.81852,-3.53639 -2.15215,-4.52066 -0.74044,-2.18443 -2.1477,-5.09225 -3.62181,-7.48374 -0.6067,-0.98427 -1.48678,-2.55537 -1.95573,-3.49133 -0.46895,-0.93596 -0.98055,-1.7808 -1.1369,-1.87743 -0.15635,-0.0966 -0.6623,-0.97478 -1.12435,-1.95146 -0.46204,-0.97667 -1.2766,-2.42259 -1.81014,-3.21314 -0.53354,-0.79055 -0.97007,-1.57941 -0.97007,-1.75303 0,-0.1736 -0.26287,-0.66484 -0.58416,-1.09163 -0.32128,-0.42679 -0.85601,-1.43488 -1.18827,-2.2402 -1.049,-2.54246 -1.9983,-4.42961 -2.78164,-5.52971 -0.73177,-1.02768 -1.27591,-2.61958 -2.66985,-7.81085 -0.3604,-1.34219 -0.83727,-2.65998 -1.05971,-2.92842 -0.53066,-0.64042 -1.47775,-3.64141 -1.47775,-4.68248 0,-0.4501 -0.16466,-1.2279 -0.3659,-1.72846 -0.69847,-1.73733 -0.86354,-2.21934 -1.25888,-3.67583 -0.43482,-1.60192 -1.20394,-3.74504 -1.66242,-4.63224 -0.16059,-0.31075 -0.29198,-0.90376 -0.29198,-1.31779 0,-0.41403 -0.12577,-0.89189 -0.27948,-1.0619 -0.15372,-0.17001 -0.45224,-1.40726 -0.66339,-2.74945 -0.35894,-2.28165 -0.7459,-3.81536 -1.35456,-5.36877 -0.14024,-0.35792 -0.33574,-1.01681 -0.43445,-1.46421 -0.0987,-0.44739 -0.97815,-2.14674 -1.95433,-3.77633 -3.89763,-6.50651 -1.69868,-11.70019 5.82504,-13.75809 2.34369,-0.64105 5.82523,-1.71399 7.48373,-2.30634 2.04056,-0.7288 3.64956,-0.9207 9.76139,-1.16422 2.68438,-0.10696 5.31964,-0.24757 5.85613,-0.31247 0.53649,-0.0649 2.29354,-0.14304 3.90455,-0.17364 1.61102,-0.0306 4.61296,-0.18384 6.67099,-0.34054 12.6752,-0.96507 15.87485,-0.71543 16.91305,1.31961 0.61009,1.19588 1.23079,1.60896 1.70502,1.13473 0.099,-0.0989 -0.0161,-0.83105 -0.25558,-1.6269 -0.23952,-0.79585 -0.36413,-1.447 -0.27691,-1.447 0.0872,0 0.0232,-0.25624 -0.14218,-0.56941 -0.91143,-1.72559 1.7966,-10.67036 3.46562,-11.44716 1.2468,-0.58028 3.97059,0.08 3.97059,0.96246 0,0.10663 0.26082,0.47772 0.57961,0.82464 1.34809,1.46709 2.98332,5.30275 3.66987,8.6082 0.2038,0.98118 0.56637,2.09415 0.80571,2.47326 0.23934,0.37911 0.42307,1.11499 0.40828,1.63529 -0.0148,0.52029 0.14808,1.45468 0.36193,2.07642 0.21386,0.62175 0.71108,2.44082 1.10493,4.04239 0.68809,2.79808 0.75744,2.92251 1.77357,3.18176 0.58162,0.14839 1.05749,0.40217 1.05749,0.56395 0,0.16179 0.29284,0.3871 0.65076,0.50069 0.35792,0.1136 0.65076,0.38232 0.65076,0.59716 0,0.21484 0.3473,0.90171 0.77177,1.52638 0.42448,0.62468 0.84399,1.72022 0.93225,2.43454 0.0883,0.71431 0.31654,1.73802 0.50728,2.2749 0.72807,2.04922 2.15009,7.48395 2.5998,9.93597 0.1489,0.81186 0.38202,1.6562 0.51806,1.8763 0.13603,0.22011 0.30731,0.72723 0.38062,1.12694 0.13073,0.71276 0.57762,2.83171 1.08602,5.14939 0.19708,0.89841 0.12706,1.3286 -0.30258,1.85918 -0.30743,0.37967 -0.65857,1.35449 -0.78031,2.16627 -0.12173,0.81178 -0.34892,1.47597 -0.50485,1.47597 -0.15593,0 -0.37603,0.29149 -0.48911,0.64777 -0.55094,1.73587 -4.36014,1.82029 -7.53037,0.16689 -0.51175,-0.2669 -1.07687,-0.49025 -1.25583,-0.49633 -0.17896,-0.006 -0.90054,-0.44624 -1.60351,-0.97814 -0.70298,-0.5319 -1.43508,-0.96764 -1.6269,-0.96831 -0.19182,-6.5e-4 -0.86124,-0.3167 -1.48759,-0.70231 -0.62636,-0.3856 -1.6513,-0.74184 -2.27766,-0.79164 -0.62636,-0.0498 -1.79772,-0.25556 -2.60304,-0.45724 -2.91949,-0.73115 -4.43485,-0.99407 -6.67028,-1.15735 -1.25271,-0.0915 -2.80525,-0.30761 -3.45009,-0.48026 -0.64484,-0.17265 -1.96263,-0.37153 -2.92842,-0.44195 -0.96579,-0.0704 -2.34166,-0.27504 -3.0575,-0.4547 -2.82285,-0.7085 -6.01952,-0.81259 -6.01952,-0.196 0,0.71851 1.76663,3.86011 2.79331,4.96733 0.43223,0.46614 0.78586,0.9476 0.78586,1.06992 0,0.12231 0.39725,0.69448 0.88276,1.27149 0.48552,0.577 0.91058,1.23862 0.94457,1.47025 0.034,0.23164 0.60814,0.90554 1.27588,1.49756 0.66773,0.59202 1.76564,1.61103 2.43979,2.26446 0.67415,0.65342 1.51002,1.27827 1.85748,1.38856 0.82813,0.26283 4.31319,3.72693 4.31319,4.28724 0,0.239 0.43926,0.93483 0.97614,1.5463 0.53688,0.61147 0.97614,1.32385 0.97614,1.58308 0,0.25922 0.37435,1.19163 0.83189,2.07201 0.69737,1.34185 0.84895,2.12685 0.9374,4.85449 0.17209,5.3074 1.02883,9.56302 2.1648,10.75302 0.52063,0.5454 0.9466,1.11333 0.9466,1.26208 0,0.23077 0.94984,1.43918 2.70424,3.44043 1.37992,1.57408 5.0924,4.70626 6.07129,5.12229 0.6317,0.26847 1.36818,0.61785 1.63662,0.77639 0.26844,0.15854 0.85412,0.45012 1.30152,0.64795 0.4474,0.19783 1.1795,0.54392 1.6269,0.76909 0.44739,0.22517 1.37083,0.5097 2.05209,0.63229 1.74224,0.31353 10.91492,5.07474 13.87841,7.2038 0.85526,0.61444 1.64308,1.11718 1.75069,1.11718 1.07391,0 7.93339,5.87141 8.22723,7.04214 0.10587,0.42183 0.29592,0.76697 0.42234,0.76697 0.12641,0 0.47522,0.51456 0.77513,1.14348 0.65614,1.37595 1.08447,1.21433 2.82846,-1.06728 0.62603,-0.81903 1.90722,-1.98104 2.84707,-2.58226 0.93985,-0.60121 1.70882,-1.22427 1.70882,-1.38457 0,-0.25903 3.28873,-2.04271 3.72077,-2.018 0.0945,0.005 0.64256,-0.12521 1.21801,-0.29025 3.08908,-0.88593 7.2403,-0.17803 9.79095,1.66965 0.72133,0.52253 1.43628,0.95005 1.58878,0.95005 0.1525,0 0.75282,0.49549 1.33404,1.10109 0.58123,0.60559 1.35328,1.19068 1.71568,1.30021 0.7122,0.21523 3.08296,2.38375 3.08296,2.81996 0,0.14649 0.28535,0.35691 0.63412,0.4676 0.34876,0.11069 0.7362,0.52322 0.86098,0.91672 0.12478,0.39351 0.55221,1.23102 0.94985,1.86116 1.04292,1.6527 1.56856,4.37124 1.11242,5.75335 -0.19959,0.60477 -0.27686,1.32379 -0.17171,1.59781 0.10515,0.27402 0.0463,0.76889 -0.13071,1.09969 -0.17705,0.33081 -0.40941,1.16213 -0.51637,1.84737 -0.10695,0.68523 -0.40084,1.47705 -0.65307,1.75958 -0.25223,0.28253 -0.46085,1.01463 -0.46359,1.62689 -0.007,1.46765 -0.10643,1.57359 -2.73616,2.9028 -1.23918,0.62636 -2.71705,1.44829 -3.28414,1.82652 -0.56709,0.37823 -1.45668,0.77391 -1.97687,0.87929 -0.52018,0.10539 -1.89753,0.41516 -3.06076,0.6884 -2.70128,0.6345 -4.81507,0.64051 -6.30516,0.0179 -1.71787,-0.71776 -1.35294,0.38645 0.5335,1.6143 0.49423,0.32169 0.98126,0.91421 1.08229,1.31671 0.10102,0.40249 0.57517,0.92539 1.05366,1.16198 0.47849,0.23659 1.63541,1.20709 2.57093,2.15667 0.93553,0.94958 1.80075,1.72651 1.92271,1.72651 0.18956,0 2.73964,1.84243 4.33948,3.13528 1.51806,1.22675 3.62593,2.72155 3.83777,2.72155 0.13436,0 0.42718,0.29285 0.6507,0.65076 0.22352,0.35792 0.62355,0.65076 0.88896,0.65076 0.26541,0 0.66544,0.29284 0.88896,0.65076 0.22352,0.35792 0.59215,0.65076 0.81917,0.65076 0.22702,0 0.87241,0.43926 1.4342,0.97614 0.56179,0.53688 1.14238,0.97614 1.2902,0.97614 1.17247,0 1.39162,2.98719 0.26344,3.59097 -1.12021,0.59951 -0.44781,1.42316 4.8358,5.92357 1.88586,1.60631 2.77119,3.04915 2.94663,4.80216 0.0627,0.62636 0.26521,1.42187 0.45005,1.76781 0.66687,1.24807 0.40475,5.40878 -0.45235,7.18013 -2.21182,4.57112 -4.18474,5.40957 -6.88377,2.92547 z m 3.13375,-3.41636 c 0.13706,-1.0702 0.0165,-1.84995 -0.44589,-2.88261 -0.34857,-0.77856 -0.63377,-1.54342 -0.63377,-1.69969 0,-0.15626 -0.58568,-1.24101 -1.30152,-2.41054 -0.71583,-1.16954 -1.30152,-2.26254 -1.30152,-2.4289 0,-0.4155 -5.43492,-5.86828 -5.84906,-5.86828 -0.18323,0 -0.33496,-0.18303 -0.33718,-0.40673 -0.0155,-1.5711 -2.73087,-2.10494 -4.55128,-0.89479 -0.80532,0.53534 -1.61925,0.97398 -1.80875,0.97474 -1.1289,0.005 -1.4464,0.77834 -0.93513,2.27905 0.64579,1.89561 2.14909,3.2538 3.60142,3.2538 0.6021,0 1.09473,0.11185 1.09473,0.24856 0,0.13672 0.76871,0.61067 1.70825,1.05324 2.23905,1.05472 5.57771,4.25918 6.77981,6.50731 2.1226,3.96964 3.65096,4.84322 3.97989,2.27484 z m 2.17414,-5.53376 c 0,-1.17461 -0.70852,-3.57405 -1.05536,-3.57405 -0.13539,0 -0.24616,-0.17434 -0.24616,-0.38741 0,-0.49689 -4.82321,-5.14847 -5.3198,-5.1305 -0.20589,0.007 0.19304,0.51466 0.88652,1.12714 1.22437,1.08137 1.58189,1.59928 2.8547,4.13542 0.33368,0.66487 0.97179,1.74685 1.41802,2.40441 0.44622,0.65755 0.81132,1.46796 0.81132,1.8009 0,0.33295 0.14642,0.60535 0.32538,0.60535 0.17896,0 0.32538,-0.44157 0.32538,-0.98126 z m -25.77328,-8.4328 c 0.66391,-0.70377 2.23206,-1.8303 3.48477,-2.50341 1.25272,-0.67311 2.35087,-1.31344 2.44035,-1.42295 0.15369,-0.18812 1.00367,-0.64191 4.63666,-2.47545 1.49832,-0.75619 2.08235,-1.75463 1.02637,-1.75463 -0.28555,0 -0.9328,-0.29451 -1.43832,-0.65448 -0.50553,-0.35996 -1.77271,-1.08374 -2.81596,-1.60838 -2.66448,-1.33996 -8.35141,-5.6495 -11.65821,-8.83457 -0.89479,-0.86185 -2.53237,-2.43814 -3.63905,-3.50285 -2.05208,-1.97425 -2.95903,-3.41924 -3.60018,-5.73594 -0.19811,-0.71584 -0.66874,-2.25326 -1.04586,-3.41649 -1.44636,-4.46138 -2.14894,-6.93024 -2.50007,-8.78525 -0.0847,-0.44739 -0.29164,-0.95255 -0.4599,-1.12256 -0.16825,-0.17001 -0.30591,-0.6133 -0.30591,-0.98508 0,-0.37179 -0.19876,-0.96479 -0.44168,-1.31779 -0.24293,-0.353 -0.62602,-1.4207 -0.85133,-2.37267 -0.22531,-0.95197 -0.66601,-1.97692 -0.97933,-2.27766 -0.31333,-0.30074 -0.7468,-1.09557 -0.96327,-1.76629 -0.49775,-1.54224 -2.87458,-3.93692 -4.95284,-4.99006 -1.40004,-0.70945 -3.37942,-2.05989 -5.23718,-3.57308 -0.31523,-0.25675 -0.71788,-0.46682 -0.8948,-0.46682 -0.17691,0 -0.32166,-0.1269 -0.32166,-0.282 0,-0.1551 -0.74081,-0.58987 -1.64626,-0.96615 -0.90544,-0.37629 -2.30377,-1.12792 -3.10741,-1.67029 -0.80364,-0.54236 -1.53017,-0.98612 -1.61452,-0.98612 -0.0843,0 -0.69929,-0.35266 -1.36655,-0.7837 -0.66726,-0.43103 -1.72567,-0.8872 -2.35203,-1.01371 -0.62635,-0.1265 -1.28525,-0.33431 -1.4642,-0.46179 -0.17896,-0.12748 -1.05749,-0.49891 -1.95228,-0.8254 -0.8948,-0.32649 -1.91572,-0.79097 -2.26871,-1.03217 -0.353,-0.2412 -0.95736,-0.43854 -1.34302,-0.43854 -0.38567,0 -0.89051,-0.2281 -1.12188,-0.50687 -0.23136,-0.27878 -0.87158,-0.70173 -1.4227,-0.93989 -1.44422,-0.62411 -7.99372,-6.75318 -8.00112,-7.48752 -0.002,-0.18648 -0.66078,-1.21469 -1.46421,-2.28492 -0.80344,-1.07023 -1.46079,-2.17241 -1.46079,-2.44929 0,-0.27688 -0.22602,-0.8261 -0.50226,-1.2205 -0.37157,-0.53048 -0.53405,-1.81631 -0.62442,-4.94155 -0.0672,-2.32346 -0.22069,-4.38389 -0.34111,-4.57873 -0.12042,-0.19485 -0.2855,-0.93352 -0.36683,-1.6415 -0.0885,-0.77014 -0.79536,-2.35326 -1.75967,-3.94094 -0.88648,-1.45953 -1.61179,-2.77411 -1.61179,-2.92127 0,-0.14717 -0.58568,-0.63731 -1.30151,-1.08919 -0.71584,-0.45189 -1.30152,-1.00933 -1.30152,-1.23874 0,-0.22942 -0.7676,-0.9963 -1.70578,-1.70416 -0.93817,-0.70787 -2.21936,-1.7672 -2.84707,-2.35406 -0.62771,-0.58686 -1.36977,-1.27873 -1.64901,-1.53749 -0.27924,-0.25877 -0.83774,-1.1313 -1.24111,-1.93896 -0.40337,-0.80766 -0.98275,-1.65321 -1.28753,-1.87899 -0.52826,-0.39134 -1.41229,-1.60528 -2.19456,-3.01355 -1.66327,-2.99425 -2.59033,-4.68951 -2.98041,-5.45011 -0.25239,-0.49213 -0.58492,-0.89479 -0.73894,-0.89479 -0.15402,0 -0.69238,-0.57589 -1.19634,-1.27976 -2.10352,-2.93791 -3.86147,-5.08062 -5.51025,-6.71628 -0.96303,-0.95536 -1.75096,-1.85933 -1.75096,-2.00881 0,-0.50464 -2.75647,-2.87498 -3.9859,-3.42754 -0.67109,-0.30162 -1.22017,-0.67618 -1.22017,-0.83235 0,-0.15618 -0.87934,-0.92431 -1.95409,-1.70696 -2.18104,-1.58827 -2.67235,-2.45643 -1.76546,-3.11956 1.01309,-0.74079 1.78972,-0.48713 3.90891,1.27673 1.12881,0.93953 2.53633,2.11113 3.12782,2.60355 1.43697,1.19629 2.24391,1.36889 4.38735,0.93842 0.99275,-0.19937 1.9555,-0.26948 2.13944,-0.15579 0.40118,0.24794 26.56052,0.25814 26.80821,0.0104 0.23996,-0.23996 -0.48563,-3.75747 -1.01947,-4.94218 -0.52179,-1.15798 -2.11861,-7.66917 -2.11861,-8.63886 0,-2.58171 -1.6127,-4.30906 -3.82976,-4.10203 -1.19352,0.11145 -6.20105,0.36178 -11.12784,0.55629 -4.92679,0.1945 -9.6167,0.49186 -10.42201,0.66079 -0.80531,0.16893 -3.36768,0.37975 -5.69414,0.46849 -2.32647,0.0887 -4.96204,0.29422 -5.85684,0.45663 -0.89479,0.16242 -1.94436,0.22136 -2.33238,0.13098 -2.44472,-0.5694 -11.29788,2.83176 -13.52987,5.19783 -2.18612,2.31744 -2.15136,3.38407 0.24559,7.5359 1.84421,3.1944 2.75116,5.35073 2.75943,6.56074 0.003,0.38074 0.22791,0.87747 0.50067,1.10385 0.27276,0.22637 0.43738,0.47014 0.36581,0.54171 -0.0716,0.0716 0.0711,1.18546 0.31713,2.47532 0.24599,1.28986 0.44833,2.85768 0.44965,3.48403 0.001,0.62636 0.22111,1.55823 0.48845,2.07082 0.26734,0.51259 0.48874,1.09828 0.49202,1.30152 0.003,0.20324 0.51575,1.60729 1.13883,3.12011 0.62308,1.51281 1.13287,3.15354 1.13287,3.64607 0,0.49252 0.3434,1.40151 0.76311,2.01998 0.4197,0.61848 0.93627,1.83295 1.14791,2.69884 0.21165,0.86588 0.61074,2.23323 0.88687,3.03854 0.27613,0.80532 0.55978,1.75705 0.63034,2.11497 0.38579,1.9571 0.82543,3.1509 1.91722,5.20607 0.66549,1.25271 1.34564,2.41676 1.51144,2.58677 0.16581,0.17001 0.30387,0.60927 0.30682,0.97614 0.003,0.36686 0.33239,1.21437 0.7321,1.88335 0.39971,0.66898 1.66397,2.86529 2.80945,4.88069 1.14549,2.01541 2.38905,4.17685 2.76349,4.8032 0.37443,0.62636 0.90143,1.53638 1.1711,2.02226 0.26967,0.48589 0.98258,1.73046 1.58423,2.76573 2.22047,3.82069 3.2987,5.88836 3.2987,6.32574 0,0.24688 0.36605,0.98757 0.81345,1.64597 0.4474,0.65841 0.81491,1.53432 0.81669,1.94647 0.002,0.41215 0.64887,1.84752 1.43799,3.18971 0.78912,1.34219 2.13214,3.68493 2.98449,5.20608 0.85236,1.52115 1.96231,3.33677 2.46656,4.03472 0.50426,0.69794 0.91683,1.44025 0.91683,1.64956 0,0.20932 0.32945,0.67528 0.7321,1.03548 1.41489,1.26568 2.37809,2.58209 4.13013,5.64466 0.97259,1.70011 1.88887,3.1405 2.03616,3.20088 0.1473,0.0604 0.73643,0.79247 1.30918,1.62689 1.05037,1.53023 3.94667,4.60824 4.33619,4.60824 0.31285,0 2.19281,2.01621 2.57883,2.76573 0.18433,0.35792 0.99355,0.97605 1.79826,1.37363 0.8047,0.39758 1.97557,1.20526 2.60193,1.79485 1.09036,1.02636 3.79994,2.94011 4.31128,3.04501 0.13422,0.0275 0.35653,0.0684 0.49403,0.0907 0.1375,0.0224 0.93453,0.60633 1.77117,1.29769 1.56703,1.29492 5.65015,2.58059 8.91237,2.80627 0.73417,0.0508 1.67348,0.27358 2.08736,0.49508 0.95318,0.51013 7.82512,0.74705 8.97606,0.30946 1.0795,-0.41042 0.94312,-1.37593 -0.66379,-4.69935 -2.63853,-5.45703 -3.07363,-7.05587 -2.94084,-10.80658 0.0659,-1.86299 -0.36162,-3.22594 -1.37528,-4.38387 -0.72108,-0.82371 -0.40595,-1.99625 0.63444,-2.36063 0.99023,-0.34682 1.84074,0.36765 1.86094,1.56328 0.006,0.3368 0.31865,1.1112 0.69547,1.7209 0.53315,0.86265 0.71195,1.77333 0.8061,4.10565 0.18296,4.53232 0.10622,4.28748 3.52349,11.24086 0.82108,1.67073 1.49288,3.25875 1.49288,3.52895 0,0.2702 0.27191,0.87992 0.60425,1.35494 0.33233,0.47503 1.01166,1.59579 1.50962,2.49058 1.8567,3.33636 2.58663,4.61566 3.96042,6.9412 0.77519,1.31224 1.40944,2.51097 1.40944,2.66385 0,0.48473 3.34707,3.54294 4.45084,4.06671 0.58292,0.27661 1.17434,0.68865 1.31427,0.91564 0.13993,0.227 0.76689,0.76437 1.39324,1.19416 0.62636,0.4298 1.21204,0.86171 1.30152,0.95981 0.15999,0.1754 1.15631,0.7692 2.44344,1.45625 0.35961,0.19196 1.16492,0.73356 1.78958,1.20354 0.62466,0.46999 1.64822,1.02337 2.27458,1.22973 0.62635,0.20637 2.01735,0.88155 3.0911,1.50041 2.44623,1.40989 2.53398,1.40668 3.99896,-0.14623 z m 16.92315,-6.68158 c 0.0799,-0.0799 0.0586,-0.37122 -0.0474,-0.64737 -0.20646,-0.53801 -1.18924,-0.70326 -1.18924,-0.19997 0,0.16618 -0.25558,0.55772 -0.56796,0.8701 -0.54036,0.54036 -0.51385,0.55714 0.54569,0.34523 0.61251,-0.1225 1.17902,-0.2881 1.25891,-0.36799 z m -8.72037,-7.02775 c -0.4474,-0.3578 -1.10629,-0.91872 -1.46421,-1.2465 -0.35792,-0.32777 -1.16323,-0.87684 -1.78959,-1.22015 -0.62635,-0.34331 -1.98873,-1.42475 -3.02751,-2.40319 -1.03877,-0.97845 -2.79582,-2.63249 -3.90455,-3.67565 -1.10873,-1.04316 -2.41233,-2.13262 -2.89688,-2.42101 -0.48455,-0.2884 -1.04502,-0.92034 -1.24549,-1.40431 -0.47594,-1.14901 -1.515,-2.24983 -2.12362,-2.24983 -0.80404,0 0.69696,2.10158 4.18311,5.85683 1.64527,1.77227 2.68006,2.6549 4.95918,4.22994 0.64739,0.44739 1.99398,1.50894 2.99242,2.359 0.99845,0.85005 2.06272,1.54555 2.36506,1.54555 0.30233,0 0.81472,0.29284 1.13863,0.65076 0.32391,0.35792 0.82247,0.64589 1.10791,0.63993 0.38137,-0.008 0.30328,-0.18333 -0.29446,-0.66137 z m -2.48216,-16.54576 c 4.6818,-1.0231 8.33899,-4.381 8.33899,-7.65654 0,-0.27057 0.23288,-1.07395 0.5175,-1.78531 0.99252,-2.48053 -0.58501,-7.03375 -3.25524,-9.39565 -0.55227,-0.4885 -1.2278,-1.23049 -1.50118,-1.64887 -0.47836,-0.73207 -2.72486,-2.09645 -7.10194,-4.31326 -1.98555,-1.0056 -2.13396,-1.03168 -3.74187,-0.65762 -0.92088,0.21423 -2.26,0.47559 -2.97584,0.58079 -1.8199,0.26745 -5.58654,2.56023 -6.43342,3.91607 -0.13817,0.22121 -0.43101,0.5964 -0.65076,0.83376 -0.85974,0.92864 -1.86376,2.52538 -1.86376,2.96402 0,0.25378 -0.20097,0.6282 -0.4466,0.83205 -0.43778,0.36333 -0.0504,3.52237 0.55135,4.49598 0.21388,0.34606 1.16259,3.66315 1.3762,4.81176 0.92935,4.99729 2.01115,6.18313 5.91029,6.4787 2.14041,0.16225 3.67171,0.48013 4.16612,0.86483 0.36287,0.28235 2.95282,0.56439 3.73841,0.40711 0.27005,-0.0541 1.78734,-0.38158 3.37175,-0.72782 z M 213.92865,158.0221 c 0.35792,-0.35792 0.65076,-1.00817 0.65076,-1.445 0,-0.43684 0.14824,-0.88586 0.32941,-0.99784 0.21134,-0.13061 0.21958,-0.39984 0.023,-0.7511 -0.20877,-0.37304 -0.16837,-0.70311 0.12677,-1.03579 0.4531,-0.51074 -0.0175,-2.96398 -1.2843,-6.69531 -0.28587,-0.84203 -0.58392,-1.91302 -0.66232,-2.37997 -0.28954,-1.72444 -0.80216,-4.13498 -1.11468,-5.24163 -0.17688,-0.62635 -0.58729,-2.19207 -0.91203,-3.47938 -0.32474,-1.2873 -0.69635,-2.44647 -0.8258,-2.57592 -0.12945,-0.12945 -0.23537,-0.57702 -0.23537,-0.99459 0,-0.41757 -0.16533,-0.75922 -0.36741,-0.75922 -0.42006,0 -0.1001,3.82931 0.36698,4.39211 0.41797,0.50362 0.17926,3.433 -0.3857,4.73336 -0.91927,2.11585 -2.86753,2.77348 -5.25783,1.77475 -2.57163,-1.0745 -3.53707,-0.23821 -2.36632,2.04978 0.24728,0.48325 0.55348,1.50383 0.68045,2.26795 0.12697,0.76412 0.43713,1.59558 0.68924,1.84769 0.2521,0.25211 0.46051,0.72507 0.46311,1.05103 0.003,0.32597 0.21699,1.20182 0.47641,1.94634 0.25943,0.74453 0.54703,1.76916 0.63911,2.27696 0.17866,0.9853 0.73247,1.53176 2.29623,2.26578 0.53688,0.252 1.19577,0.59024 1.46421,0.75164 0.4679,0.28131 2.22886,1.05048 3.2538,1.4212 0.89021,0.322 1.29513,0.2343 1.95227,-0.42284 z m -11.71366,-4.90172 c 0,-0.19052 -0.28112,-1.03244 -0.6247,-1.87093 -0.50414,-1.23032 -1.36965,-3.73355 -2.10214,-6.07984 -0.0559,-0.17896 -0.2705,-0.73757 -0.47696,-1.24136 -0.20646,-0.50379 -0.37538,-1.06014 -0.37538,-1.23633 0,-2.19076 -2.52574,-3.45889 -6.67028,-3.34902 -3.4111,0.0904 -6.94876,0.13137 -7.64642,0.0885 -0.26844,-0.0165 -1.22018,-0.009 -2.11497,0.0163 -2.44807,0.0696 -8.65231,0.13341 -9.76139,0.10037 -4.04492,-0.1205 -6.67995,0.0114 -6.67445,0.33415 0.002,0.13422 0.004,0.38153 0.004,0.54959 0,0.29904 5.18071,6.66727 6.53358,8.03119 0.70086,0.7066 0.89461,0.74777 7.45774,1.58485 1.87907,0.23967 4.36822,0.59245 5.53146,0.78395 6.19876,1.02055 8.45023,1.35457 9.92408,1.47229 0.89479,0.0715 2.50542,0.35005 3.57917,0.61907 2.37806,0.59579 3.41649,0.65575 3.41649,0.19725 z m 5.12556,-14.99868 c 0.30412,-1.28027 0.30877,-1.78769 0.0196,-2.13613 -0.2086,-0.25135 -0.41244,-0.77692 -0.45299,-1.16793 -0.1,-0.96393 -1.39585,-6.53291 -1.95897,-8.4185 -0.25054,-0.83894 -0.45553,-1.75606 -0.45553,-2.03804 0,-0.28198 -0.14168,-0.76694 -0.31485,-1.07769 -0.37529,-0.67345 -1.31204,-4.43742 -1.31204,-5.27192 0,-0.56294 -0.77099,-3.36786 -1.29988,-4.72909 -0.13907,-0.35791 -0.43294,-1.30965 -0.65305,-2.11496 -0.68436,-2.50386 -0.99306,-3.14888 -1.94217,-4.05819 -1.1298,-1.08241 -2.28712,-0.71925 -2.28712,0.7177 0,0.47661 -0.36912,2.07672 -0.82027,3.55582 -0.7995,2.62115 -0.80785,2.74882 -0.32977,5.04171 0.62487,2.99692 0.29735,4.4383 -1.24934,5.49811 -1.17657,0.8062 -1.45095,2.55459 -0.63551,4.04962 0.34894,0.63977 1.65144,5.31952 1.97082,7.08099 0.0896,0.49432 0.2925,0.97883 0.45083,1.07669 0.15832,0.0978 0.28786,0.42947 0.28786,0.73695 0,0.87045 1.70397,2.52393 3.06332,2.97255 0.67624,0.22318 1.61803,0.60848 2.09287,0.85624 0.47483,0.24774 1.15618,0.45359 1.5141,0.45743 0.35791,0.004 0.87039,0.14892 1.13883,0.3224 1.47372,0.9524 2.75534,0.40564 3.17328,-1.35376 z"
       id="path4308"
       inkscape:connector-curvature="0" />
  </g>
</svg>
